<svg id="Layer_1" data-name="Layer 1" xmlns="http://www.w3.org/2000/svg" viewBox="0 0 50 50"><defs><style>.cls-1{fill:#fe4265;}</style></defs><path class="cls-1" d="M40.8187,20.956a15.771,15.771,0,1,1-1.1216-6.0755A15.82,15.82,0,0,1,40.8187,20.956Zm-10.27-6.63,4.78-4.71c-4.32-3.74-9.33-5.05-14.87-3.26a14.48,14.48,0,0,0-10.45,12.3,14.76,14.76,0,0,0,4.08,12.7c1.77-1.8,3.42-3.47,5.06-5.15a1.08,1.08,0,0,0,.31-.63c-.11-1.71-.27-3.42-.41-5.19l-1.53-.23a18.0057,18.0057,0,0,1,1.13-3.9c1.36-2.44,3.83-3.2,6.42-3.49l.18-2.63h.41v2.38Zm.73,6.06v2.92a7.47,7.47,0,0,1-4.89,7.2,3.42,3.42,0,0,1-2.32,0,7.66,7.66,0,0,1-4.14-3.69l-5.15,5.14c5.64,5.7,15.7,5.35,21.4-.86,6.21-6.77,4.52-16.36-.12-20.56l-4.75,4.72a5.86,5.86,0,0,1,1.41,5Zm-.52,0h-10.86a37.235,37.235,0,0,0,0,4.1c.34,2.81,2.12,4.54,4.63,5.59a1.78,1.78,0,0,0,1.18.06c2.31-.88,4.11-2.37,4.63-4.87a35.8364,35.8364,0,0,0,.42-4.89Zm1.24-.76c.42-2-.61-3.94-2.74-5.14a8.1,8.1,0,0,0-9.08.87,3.93,3.93,0,0,0-1.2,4.7l.52-2.26a3.3307,3.3307,0,0,1,.38,1.27c.07.24.35.42.54.62.16-.19.39-.37.45-.59a8,8,0,0,0,.15-1.3h.36l.17,1.72c1.32.7.85-.79,1.26-1l.86,1.18,1-1.17a2.1543,2.1543,0,0,0,.13.28c.18.3.37.59.56.88a8.5686,8.5686,0,0,0,.43-1,6.9422,6.9422,0,0,0,.16-.91h.34l.17,1.72c1.35.71.84-.81,1.41-1.12.23.63.08,1.71,1.26,1.16l.31-1.55.74,1.79.37-.15.18-1.82c.65,1.15,1.02,1.77,1.27,1.81Z"/><path class="cls-1" d="M26.6077,28.256l2.73-4C29.6777,25.426,28.3877,27.456,26.6077,28.256Z"/><path class="cls-1" d="M11.5888,40.248a1.4579,1.4579,0,0,1,1.224.495,1.9894,1.9894,0,0,1,.3959,1.296v2.646a.2692.2692,0,0,1-.0809.198.2758.2758,0,0,1-.1891.072.2491.2491,0,0,1-.27-.27V42.066a1.4371,1.4371,0,0,0-.297-.945,1.0711,1.0711,0,0,0-.9-.369,1.5959,1.5959,0,0,0-.7379.18,1.5625,1.5625,0,0,0-.5581.486,1.0783,1.0783,0,0,0-.2159.648v2.619a.2694.2694,0,0,1-.0811.198.2556.2556,0,0,1-.189.072.249.249,0,0,1-.27-.27V40.653a.2555.2555,0,0,1,.0719-.189.2693.2693,0,0,1,.198-.081.277.277,0,0,1,.27.27v.495a2.0425,2.0425,0,0,1,1.629-.9Zm6.4721.135a.2768.2768,0,0,1,.27.27v2.538a1.8,1.8,0,0,1-.495,1.359,1.9114,1.9114,0,0,1-1.368.468,1.8983,1.8983,0,0,1-1.359-.468,1.8185,1.8185,0,0,1-.486-1.359V40.653a.2556.2556,0,0,1,.072-.189.2693.2693,0,0,1,.198-.081.2768.2768,0,0,1,.27.27v2.538a1.3406,1.3406,0,0,0,.342.99,1.3229,1.3229,0,0,0,.963.333,1.3359,1.3359,0,0,0,.972-.333,1.32,1.32,0,0,0,.351-.99V40.653a.2556.2556,0,0,1,.072-.189A.2693.2693,0,0,1,18.0609,40.383Zm2.5859.495v3.015a.6619.6619,0,0,0,.1261.468.47.47,0,0,0,.333.117.6441.6441,0,0,0,.1349-.018.4322.4322,0,0,1,.1261-.027.1629.1629,0,0,1,.135.072.2083.2083,0,0,1,.063.153.2568.2568,0,0,1-.144.216.6869.6869,0,0,1-.342.081,1.8752,1.8752,0,0,1-.4321-.045.7055.7055,0,0,1-.3689-.27,1.2,1.2,0,0,1-.1711-.72V40.878H19.45a.2754.2754,0,0,1-.189-.072.2607.2607,0,0,1,0-.36.2754.2754,0,0,1,.189-.072h.6569v-.999a.2556.2556,0,0,1,.0721-.189.2693.2693,0,0,1,.198-.081.2768.2768,0,0,1,.27.27v.999h.9a.2215.2215,0,0,1,.1709.081.25.25,0,0,1,.0811.18.2439.2439,0,0,1-.0721.18.2632.2632,0,0,1-.18.063Zm6.2128-2.07a.5612.5612,0,0,0-.45.189.8075.8075,0,0,0-.153.522v.927h1.0081a.2338.2338,0,0,1,.171.072.2407.2407,0,0,1,0,.36.2338.2338,0,0,1-.171.072H26.2566v3.735a.2689.2689,0,0,1-.081.198.2555.2555,0,0,1-.1889.072.2491.2491,0,0,1-.27-.27V40.95H25.06a.2442.2442,0,0,1-.18-.072.2642.2642,0,0,1-.0721-.18.2261.2261,0,0,1,.0721-.18.2442.2442,0,0,1,.18-.072h.657v-.927a1.1434,1.1434,0,0,1,.3239-.873,1.2309,1.2309,0,0,1,.882-.315,1.3225,1.3225,0,0,1,.4681.081q.2159.072.2159.243a.2442.2442,0,0,1-.072.18.2236.2236,0,0,1-.1619.072.5708.5708,0,0,1-.198-.045A1.2717,1.2717,0,0,0,26.86,38.808Zm3.7218,1.44a.7139.7139,0,0,1,.324.072.2307.2307,0,0,1,.1441.216.3.3,0,0,1-.0721.207.2334.2334,0,0,1-.1709.072.7358.7358,0,0,1-.18-.045.72.72,0,0,0-.243-.045,1.0788,1.0788,0,0,0-.666.261,2.0219,2.0219,0,0,0-.54.657,1.7818,1.7818,0,0,0-.2071.819v2.223a.27.27,0,0,1-.0809.198.2558.2558,0,0,1-.1891.072.249.249,0,0,1-.27-.27V40.653a.2559.2559,0,0,1,.0719-.189.27.27,0,0,1,.198-.081.2766.2766,0,0,1,.27.27v.792a2.05,2.05,0,0,1,.621-.846A1.569,1.569,0,0,1,30.5814,40.248Zm4.9979,2.142a.2588.2588,0,0,1-.0811.189.2752.2752,0,0,1-.1889.072H31.9072a2.1447,2.1447,0,0,0,.216.972,1.7482,1.7482,0,0,0,.63.675,1.885,1.885,0,0,0,.972.243,1.6367,1.6367,0,0,0,.774-.18,1.5962,1.5962,0,0,0,.549-.459.3043.3043,0,0,1,.1889-.081.2469.2469,0,0,1,.2341.234.2668.2668,0,0,1-.09.189,2.2533,2.2533,0,0,1-.729.576,1.96,1.96,0,0,1-.9181.225,2.4646,2.4646,0,0,1-1.2239-.297,2.1133,2.1133,0,0,1-.8281-.828,2.535,2.535,0,0,1-.2969-1.242,2.7316,2.7316,0,0,1,.288-1.287,2.1016,2.1016,0,0,1,.7829-.846,1.9524,1.9524,0,0,1,1.035-.297,2.0938,2.0938,0,0,1,1.0081.252,1.9849,1.9849,0,0,1,.774.738A2.2256,2.2256,0,0,1,35.5793,42.39Zm-2.0881-1.62a1.526,1.526,0,0,0-.972.36,1.6782,1.6782,0,0,0-.567,1.035h3.069v-.072a1.4326,1.4326,0,0,0-.8369-1.161A1.5663,1.5663,0,0,0,33.4912,40.77Zm7.089,1.62a.2593.2593,0,0,1-.0809.189.2758.2758,0,0,1-.1891.072h-3.402a2.1421,2.1421,0,0,0,.2161.972,1.7477,1.7477,0,0,0,.63.675,1.8858,1.8858,0,0,0,.972.243,1.6368,1.6368,0,0,0,.7741-.18,1.594,1.594,0,0,0,.5489-.459.3043.3043,0,0,1,.189-.081.2471.2471,0,0,1,.2341.234.2672.2672,0,0,1-.09.189,2.25,2.25,0,0,1-.7291.576,1.959,1.959,0,0,1-.9179.225,2.4654,2.4654,0,0,1-1.2241-.297,2.1128,2.1128,0,0,1-.8279-.828,2.5351,2.5351,0,0,1-.2971-1.242,2.734,2.734,0,0,1,.288-1.287,2.1007,2.1007,0,0,1,.7831-.846,1.9516,1.9516,0,0,1,1.035-.297A2.094,2.094,0,0,1,39.5,40.5a1.9843,1.9843,0,0,1,.774.738A2.2255,2.2255,0,0,1,40.58,42.39Zm-2.0879-1.62a1.5254,1.5254,0,0,0-.972.36,1.6778,1.6778,0,0,0-.5671,1.035h3.069v-.072a1.392,1.392,0,0,0-.27-.702,1.4064,1.4064,0,0,0-.5671-.459A1.5652,1.5652,0,0,0,38.4923,40.77Z"/></svg>