<svg id="Layer_1" data-name="Layer 1" xmlns="http://www.w3.org/2000/svg" viewBox="0 0 50 50"><defs><style>.cls-1{fill:none;stroke:#fe4265;stroke-linecap:round;stroke-linejoin:round;stroke-width:1.5px;}</style></defs><path class="cls-1" d="M12.9184,10.375a2.565,2.565,0,0,0-2.5434,2.584V14.48a4.1423,4.1423,0,0,0,1.12,2.837L19.37,25.69l.0035-.006a8.3811,8.3811,0,0,1,2.3755,5.854v7.429a.6453.6453,0,0,0,.9505.579l4.4843-2.443a2.1274,2.1274,0,0,0,1.0994-1.8681V31.519a8.37,8.37,0,0,1,2.35-5.829l7.8743-8.373A4.1486,4.1486,0,0,0,39.625,14.48V12.959a2.5635,2.5635,0,0,0-2.5417-2.584Z"/></svg>