<svg id="Layer_1" data-name="Layer 1" xmlns="http://www.w3.org/2000/svg" viewBox="0 0 50 50"><defs><style>.cls-1{fill:#fe4265;}</style></defs><path class="cls-1" d="M25.02,4.1a15.77,15.77,0,1,1-6.0564,1.18A15.8195,15.8195,0,0,1,25.02,4.1ZM35.51,8.9c-4.33-3.8-9.19-5.16-14.63-3.57A14.5,14.5,0,0,0,10.06,17.44a14.7419,14.7419,0,0,0,4,13c.89-.93,1.72-1.68,2.4-2.54a3.4007,3.4007,0,0,0,.81-1.8,38.3137,38.3137,0,0,0,0-6.06,6.42,6.42,0,0,1,2.65-6.4,2.52,2.52,0,0,0,1.21-2.52c-.1-.7.38-1,1.08-1h5.97c.71,0,1.13.35,1,1.06-.2,1.27.57,1.94,1.42,2.61Zm-4.33,5.63a3.9958,3.9958,0,0,1,1.84,4.17c-.16,2.3,0,4.62,0,6.93V29.1c-.31.05-.46.09-.62.1-4.7,0-9.4.06-14.1,0-.41,0-.82-.42-1.18-.61l-2.4,2.24c4.11,4.61,13.9,6.7,20.86,0s5.47-16.65.54-21.27ZM24.74,28.6V17.01a.89.89,0,0,0-.18-.56c-1-1.1-2.09-2.18-3.18-3.3-.94.95-1.72,1.8-2.57,2.56a2.58,2.58,0,0,0-.91,2.16v9.27a10.409,10.409,0,0,0,.07,1.46Zm.7-.05h6.93V16.99H25.44Zm6.43-12.19.23-.38-2.75-2.59c-.23-.21-.52-.52-.78-.53H22.24l-.29.46c1,.92,2.07,1.85,3.13,2.74a1.2706,1.2706,0,0,0,.76.3C27.85,16.37,29.86,16.36,31.87,16.36Zm-3.4-5.48H21.75l.07,1.22h6.65Z"/><path class="cls-1" d="M31.54,21.2H26.18C26.82,20.66,30.27,20.56,31.54,21.2Z"/><path class="cls-1" d="M31.55,23.37H26.26V23.1h5.28Z"/><path class="cls-1" d="M9.3307,37.44a.2768.2768,0,0,1,.27.27v6.12a.2693.2693,0,0,1-.081.198.2556.2556,0,0,1-.189.072.2491.2491,0,0,1-.27-.27V43.2a1.93,1.93,0,0,1-.675.702,1.7559,1.7559,0,0,1-.981.288,1.9857,1.9857,0,0,1-1.08-.306,2.2113,2.2113,0,0,1-.756-.864,2.8441,2.8441,0,0,1,0-2.457,2.1433,2.1433,0,0,1,.756-.855,1.9288,1.9288,0,0,1,1.071-.315,1.872,1.872,0,0,1,.981.27,1.7831,1.7831,0,0,1,.684.684V37.71a.2556.2556,0,0,1,.072-.189A.2693.2693,0,0,1,9.3307,37.44Zm-1.872,6.246a1.4877,1.4877,0,0,0,.837-.243,1.6079,1.6079,0,0,0,.585-.675,2.2,2.2,0,0,0,.216-.981,2.1231,2.1231,0,0,0-.216-.963,1.6079,1.6079,0,0,0-.585-.675,1.4493,1.4493,0,0,0-.837-.252,1.4914,1.4914,0,0,0-.846.252,1.6953,1.6953,0,0,0-.585.675,2.3645,2.3645,0,0,0,0,1.935,1.7648,1.7648,0,0,0,.585.684A1.5313,1.5313,0,0,0,7.4587,43.686Zm7.2861-4.185a.2408.2408,0,0,1,.189.081.2693.2693,0,0,1,.081.198v4.05a.2693.2693,0,0,1-.081.198.2556.2556,0,0,1-.189.072.2491.2491,0,0,1-.27-.27v-.603a1.8858,1.8858,0,0,1-.675.684,1.8266,1.8266,0,0,1-.981.279,1.9592,1.9592,0,0,1-1.089-.315,2.2113,2.2113,0,0,1-.756-.864,2.7565,2.7565,0,0,1-.27-1.233,2.6275,2.6275,0,0,1,.279-1.224,2.1433,2.1433,0,0,1,.756-.855,1.97,1.97,0,0,1,1.071-.306,1.9379,1.9379,0,0,1,.99.261,1.719,1.719,0,0,1,.675.684V39.78a.2874.2874,0,0,1,.072-.198A.2693.2693,0,0,1,14.7448,39.501Zm-1.872,4.185a1.4877,1.4877,0,0,0,.837-.243,1.6707,1.6707,0,0,0,.585-.684,2.2,2.2,0,0,0,.216-.981,2.103,2.103,0,0,0-.216-.954,1.6079,1.6079,0,0,0-.585-.675,1.4493,1.4493,0,0,0-.837-.252,1.5313,1.5313,0,0,0-.846.243,1.6953,1.6953,0,0,0-.585.675,2.163,2.163,0,0,0-.207.963,2.28,2.28,0,0,0,.207.981,1.6963,1.6963,0,0,0,.576.684A1.5469,1.5469,0,0,0,12.8728,43.686Zm4.073.144a.2693.2693,0,0,1-.081.198.2556.2556,0,0,1-.189.072.2491.2491,0,0,1-.27-.27V39.69a.2556.2556,0,0,1,.072-.189.2693.2693,0,0,1,.198-.081.2768.2768,0,0,1,.27.27Zm-.27-5.013a.4294.4294,0,0,1-.279-.081.3233.3233,0,0,1-.099-.252v-.09a.2956.2956,0,0,1,.099-.243.4354.4354,0,0,1,.288-.09q.36,0,.36.333v.09a.3233.3233,0,0,1-.099.252A.3925.3925,0,0,1,16.6758,38.817Zm3.8238.576a.7145.7145,0,0,1,.324.072.2306.2306,0,0,1,.144.216.3.3,0,0,1-.072.207.2336.2336,0,0,1-.171.072.7364.7364,0,0,1-.18-.045.7212.7212,0,0,0-.243-.045,1.0788,1.0788,0,0,0-.666.261,2.0234,2.0234,0,0,0-.54.657,1.7829,1.7829,0,0,0-.207.819V43.83a.2693.2693,0,0,1-.081.198.2556.2556,0,0,1-.189.072.2491.2491,0,0,1-.27-.27V39.798a.2556.2556,0,0,1,.072-.189.2693.2693,0,0,1,.198-.081.2768.2768,0,0,1,.27.27v.792a2.0483,2.0483,0,0,1,.621-.846A1.569,1.569,0,0,1,20.5,39.393Zm4.7409.027a.2768.2768,0,0,1,.27.27v3.969a2.474,2.474,0,0,1-.279,1.215,1.8643,1.8643,0,0,1-.774.765,2.3558,2.3558,0,0,1-1.116.261,3.0009,3.0009,0,0,1-.711-.081,1.8765,1.8765,0,0,1-.54-.216.3234.3234,0,0,1-.189-.261.5412.5412,0,0,1,.018-.09.2459.2459,0,0,1,.09-.135.228.228,0,0,1,.135-.045.24.24,0,0,1,.108.027,2.294,2.294,0,0,0,1.098.315,1.5255,1.5255,0,0,0,1.179-.468,1.7884,1.7884,0,0,0,.441-1.278v-.315a1.68,1.68,0,0,1-.648.612,1.9246,1.9246,0,0,1-.918.225,1.4856,1.4856,0,0,1-1.188-.468,1.8733,1.8733,0,0,1-.405-1.269V39.69a.2556.2556,0,0,1,.072-.189.2693.2693,0,0,1,.198-.081.2768.2768,0,0,1,.27.27v2.682a1.4943,1.4943,0,0,0,.279.981,1.1157,1.1157,0,0,0,.891.333,1.4555,1.4555,0,0,0,.702-.18,1.5155,1.5155,0,0,0,.54-.486,1.1372,1.1372,0,0,0,.207-.648V39.69a.2556.2556,0,0,1,.072-.189A.2693.2693,0,0,1,25.2405,39.42ZM30.99,37.953a.561.561,0,0,0-.45.189.8075.8075,0,0,0-.153.522v.927h1.008a.2336.2336,0,0,1,.171.072.2405.2405,0,0,1,0,.36.2336.2336,0,0,1-.171.072h-1.008V43.83a.2693.2693,0,0,1-.081.198.2556.2556,0,0,1-.189.072.2491.2491,0,0,1-.27-.27V40.095H29.19a.2442.2442,0,0,1-.18-.072.2646.2646,0,0,1-.072-.18.2264.2264,0,0,1,.072-.18.2442.2442,0,0,1,.18-.072h.657v-.927a1.1431,1.1431,0,0,1,.324-.873,1.2308,1.2308,0,0,1,.882-.315,1.3223,1.3223,0,0,1,.468.081q.216.072.216.243a.2442.2442,0,0,1-.072.18.2238.2238,0,0,1-.162.072.5717.5717,0,0,1-.198-.045A1.2718,1.2718,0,0,0,30.99,37.953Zm3.7218,1.44a.7145.7145,0,0,1,.324.072.2306.2306,0,0,1,.144.216.3.3,0,0,1-.072.207.2336.2336,0,0,1-.171.072.7364.7364,0,0,1-.18-.045.7212.7212,0,0,0-.243-.045,1.0788,1.0788,0,0,0-.666.261,2.0234,2.0234,0,0,0-.54.657,1.7829,1.7829,0,0,0-.207.819V43.83a.2693.2693,0,0,1-.081.198.2556.2556,0,0,1-.189.072.2491.2491,0,0,1-.27-.27V39.798a.2556.2556,0,0,1,.072-.189.2693.2693,0,0,1,.198-.081.2768.2768,0,0,1,.27.27v.792a2.0483,2.0483,0,0,1,.621-.846A1.569,1.569,0,0,1,34.7115,39.393Zm4.9978,2.142a.259.259,0,0,1-.081.189.2756.2756,0,0,1-.189.072h-3.402a2.1434,2.1434,0,0,0,.216.972,1.748,1.748,0,0,0,.63.675,1.8853,1.8853,0,0,0,.972.243,1.6364,1.6364,0,0,0,.774-.18,1.5943,1.5943,0,0,0,.549-.459.3043.3043,0,0,1,.189-.081.2469.2469,0,0,1,.234.234.2668.2668,0,0,1-.09.189,2.2511,2.2511,0,0,1-.729.576,1.9593,1.9593,0,0,1-.918.225,2.465,2.465,0,0,1-1.224-.297,2.1131,2.1131,0,0,1-.828-.828,2.535,2.535,0,0,1-.297-1.242,2.7328,2.7328,0,0,1,.288-1.287,2.1011,2.1011,0,0,1,.783-.846,1.9518,1.9518,0,0,1,1.035-.297,2.0934,2.0934,0,0,1,1.008.252,1.9843,1.9843,0,0,1,.774.738A2.2256,2.2256,0,0,1,39.7093,41.535Zm-2.088-1.62a1.5258,1.5258,0,0,0-.972.36,1.6777,1.6777,0,0,0-.567,1.035h3.069v-.072a1.4325,1.4325,0,0,0-.837-1.161A1.5656,1.5656,0,0,0,37.6213,39.915Zm7.089,1.62a.259.259,0,0,1-.081.189.2756.2756,0,0,1-.189.072h-3.402a2.1434,2.1434,0,0,0,.216.972,1.748,1.748,0,0,0,.63.675,1.8853,1.8853,0,0,0,.972.243,1.6364,1.6364,0,0,0,.774-.18,1.5943,1.5943,0,0,0,.549-.459.3043.3043,0,0,1,.189-.081.2469.2469,0,0,1,.234.234.2668.2668,0,0,1-.09.189,2.2511,2.2511,0,0,1-.729.576,1.9593,1.9593,0,0,1-.918.225,2.465,2.465,0,0,1-1.224-.297,2.1131,2.1131,0,0,1-.828-.828,2.535,2.535,0,0,1-.297-1.242,2.7328,2.7328,0,0,1,.288-1.287,2.1011,2.1011,0,0,1,.783-.846,1.9518,1.9518,0,0,1,1.035-.297,2.0934,2.0934,0,0,1,1.008.252,1.9843,1.9843,0,0,1,.774.738A2.2256,2.2256,0,0,1,44.71,41.535Zm-2.088-1.62a1.5258,1.5258,0,0,0-.972.36,1.6777,1.6777,0,0,0-.567,1.035h3.069v-.072a1.4325,1.4325,0,0,0-.837-1.161A1.5656,1.5656,0,0,0,42.6223,39.915Z"/></svg>