<svg id="Layer_1" data-name="Layer 1" xmlns="http://www.w3.org/2000/svg" xmlns:xlink="http://www.w3.org/1999/xlink" viewBox="0 0 30 30"><defs><style>.cls-1{stroke:#fe4265;stroke-linecap:round;stroke-linejoin:round;stroke-width:1.5px;fill:url(#linear-gradient);}</style><linearGradient id="linear-gradient" x1="6" y1="15" x2="24" y2="15" gradientUnits="userSpaceOnUse"><stop offset="0.5" stop-color="#fd4264"/><stop offset="0.5053" stop-color="#fff" stop-opacity="0"/></linearGradient></defs><path class="cls-1" d="M16.1043,7.177l1.8274,3.6508a1.2279,1.2279,0,0,0,.9256.6644l4.088.5884a1.21,1.21,0,0,1,.681,2.0713L20.67,16.9924a1.203,1.203,0,0,0-.354,1.0752l.6976,4.01a1.2277,1.2277,0,0,1-1.7868,1.28l-3.6538-1.8947a1.248,1.248,0,0,0-1.1464,0L10.773,23.3574a1.2269,1.2269,0,0,1-1.7858-1.28l.6966-4.01a1.203,1.203,0,0,0-.354-1.0752L6.3737,14.1519a1.21,1.21,0,0,1,.681-2.0713l4.0879-.5884a1.23,1.23,0,0,0,.9268-.6644L13.8957,7.177A1.2391,1.2391,0,0,1,16.1043,7.177Z"/></svg>