<svg id="Layer_1" data-name="Layer 1" xmlns="http://www.w3.org/2000/svg" viewBox="0 0 50 50"><defs><style>.cls-1{fill:#fe4265;}</style></defs><path class="cls-1" d="M25.4233,4.1059a15.8129,15.8129,0,1,1-6.108,1.048A15.82,15.82,0,0,1,25.4233,4.1059Zm10.6,5.57-8.6,8.77c2.17-.08,2.44.21,1.81,2.05a12.0265,12.0265,0,0,1-1.16,2.09c.38.28,1.17.55,1.23.94a3.23,3.23,0,0,1-2.58,3.8c-1.49.16-1.69.88-1.57,2.07a1.7606,1.7606,0,0,1,0,.73,4.1882,4.1882,0,0,1-.48.81c-.16-.27-.45-.52-.47-.8v-2.59c-1.9-.14-3.28-.8-3.79-2.44l-5.9,5.65c4.44,5,14.35,6.64,21.13,0S40.7733,14.1059,36.0233,9.6759Zm-6.32,5.11,5.9-5.57c-2.56-3.34-8.53-5.25-13.51-4.18a14.6236,14.6236,0,0,0-11.75,11.07c-1.39,5.19-.16,9.9,3.49,14.12,1.75-1.7,3.44-3.27,5-4.91a22.2441,22.2441,0,0,0,1.74-2.32l-.24-.26,1.38-.1a8.12,8.12,0,0,1-1.12-1.78,4.8339,4.8339,0,0,1-.18-2.29c0-.23,1-.29,1.57-.43-1.42-1.06-1.79-2.5-1.48-4.42l3.25.65c-1.13-2.53-.69-4.26,1.45-5.5,1.75,1.6,2.39,3.41.83,5.71C28.6233,13.7259,29.2333,13.7859,29.7033,14.7859Zm-4.68-.2c1.81-1.79,1.81-3.33.06-4.87C23.3033,11.3659,23.2733,12.8859,25.0233,14.5859Zm3.56,9c-2.38,0-3.44,1-3.33,3.25,2.2.27,3.52-1.04,3.33-3.29Zm-7.62-.16c-.14,2.36,1.07,3.59,3.24,3.37.13-2.29-.89-3.38-3.24-3.41Zm4.47-5.4c2.42.09,3.65-1.18,3.3-3.29q-3.375-.165-3.3,3.25Zm-1-.09c-.08-2.43-1.15-3.48-3.28-3.3-.18,2.22,1.03,3.47,3.3,3.26Zm.87,4.51c2.39.11,3.64-1.15,3.32-3.26-2.2-.16-3.29.92-3.3,3.22Zm-4.33-3.38c.06,2.48,1.38,3.72,3.36,3.23-.05-2.4-1.15-3.44-3.34-3.27Zm5.39,4.04h-3.11l1.52,1.78Zm-1.48-2.66,1.41-1.71-2.91-.06Z"/><path class="cls-1" d="M7.1765,39.501a.2408.2408,0,0,1,.189.081.2513.2513,0,0,1,.081.198v3.897a2.2856,2.2856,0,0,1-.297,1.197,1.8939,1.8939,0,0,1-.801.765,2.4891,2.4891,0,0,1-1.161.261,2.965,2.965,0,0,1-.666-.081,2.7441,2.7441,0,0,1-.594-.207q-.243-.126-.279-.261a.1982.1982,0,0,1-.063-.144.1656.1656,0,0,1,.081-.144.1458.1458,0,0,1,.09-.027.6981.6981,0,0,1,.207.063l.189.081a2.9022,2.9022,0,0,0,1.044.216,1.6718,1.6718,0,0,0,1.251-.459,1.6357,1.6357,0,0,0,.459-1.224v-.558a1.6835,1.6835,0,0,1-.711.765,2.0653,2.0653,0,0,1-1.017.27,2.1252,2.1252,0,0,1-1.125-.306,2.2276,2.2276,0,0,1-.783-.864,2.7641,2.7641,0,0,1,0-2.457,2.1606,2.1606,0,0,1,.783-.855,2.0636,2.0636,0,0,1,1.116-.315,1.9362,1.9362,0,0,1,1.035.288,1.8586,1.8586,0,0,1,.702.675V39.78a.2874.2874,0,0,1,.072-.198A.2693.2693,0,0,1,7.1765,39.501Zm-1.953,4.185a1.6708,1.6708,0,0,0,.882-.234,1.627,1.627,0,0,0,.612-.675,2.1468,2.1468,0,0,0,.225-.99,2.0921,2.0921,0,0,0-.225-.981,1.5679,1.5679,0,0,0-.612-.666,1.6954,1.6954,0,0,0-1.764.009,1.7111,1.7111,0,0,0-.612.675,2.2748,2.2748,0,0,0,0,1.935,1.7793,1.7793,0,0,0,.612.684A1.653,1.653,0,0,0,5.2235,43.686Zm4.24.144a.2693.2693,0,0,1-.081.198.2556.2556,0,0,1-.189.072.2491.2491,0,0,1-.27-.27V37.71a.2556.2556,0,0,1,.072-.189.2693.2693,0,0,1,.198-.081.2768.2768,0,0,1,.27.27Zm4.874-4.302a.2768.2768,0,0,1,.27.27v2.538a1.8,1.8,0,0,1-.495,1.359,1.9114,1.9114,0,0,1-1.368.468,1.8983,1.8983,0,0,1-1.359-.468,1.8185,1.8185,0,0,1-.486-1.359V39.798a.2556.2556,0,0,1,.072-.189.2693.2693,0,0,1,.198-.081.2768.2768,0,0,1,.27.27v2.538a1.3406,1.3406,0,0,0,.342.99,1.3229,1.3229,0,0,0,.963.333,1.3359,1.3359,0,0,0,.972-.333,1.32,1.32,0,0,0,.351-.99V39.798a.2556.2556,0,0,1,.072-.189A.2693.2693,0,0,1,14.3375,39.528Zm2.586.495v3.015a.6625.6625,0,0,0,.126.468.47.47,0,0,0,.333.117.6442.6442,0,0,0,.135-.018.4317.4317,0,0,1,.126-.027.1629.1629,0,0,1,.135.072.2083.2083,0,0,1,.063.153.2566.2566,0,0,1-.144.216.6866.6866,0,0,1-.342.081,1.8736,1.8736,0,0,1-.432-.045.7053.7053,0,0,1-.369-.27,1.2,1.2,0,0,1-.171-.72V40.023h-.657a.2756.2756,0,0,1-.189-.072.261.261,0,0,1,0-.36.2756.2756,0,0,1,.189-.072h.657V38.52a.2556.2556,0,0,1,.072-.189.2693.2693,0,0,1,.198-.081.2768.2768,0,0,1,.27.27v.999h.9a.2216.2216,0,0,1,.171.081.25.25,0,0,1,.081.18.2442.2442,0,0,1-.072.18.2635.2635,0,0,1-.18.063Zm5.994,1.512a.259.259,0,0,1-.081.189.2756.2756,0,0,1-.189.072h-3.402a2.1434,2.1434,0,0,0,.216.972,1.748,1.748,0,0,0,.63.675,1.8853,1.8853,0,0,0,.972.243,1.6364,1.6364,0,0,0,.774-.18,1.5943,1.5943,0,0,0,.549-.459.3043.3043,0,0,1,.189-.081.2469.2469,0,0,1,.234.234.2668.2668,0,0,1-.09.189,2.2511,2.2511,0,0,1-.729.576,1.9593,1.9593,0,0,1-.918.225,2.465,2.465,0,0,1-1.224-.297,2.1131,2.1131,0,0,1-.828-.828,2.535,2.535,0,0,1-.297-1.242,2.7328,2.7328,0,0,1,.288-1.287,2.1011,2.1011,0,0,1,.783-.846,1.9518,1.9518,0,0,1,1.035-.297,2.0934,2.0934,0,0,1,1.008.252,1.9843,1.9843,0,0,1,.774.738A2.2256,2.2256,0,0,1,22.9175,41.535Zm-2.088-1.62a1.5258,1.5258,0,0,0-.972.36,1.6777,1.6777,0,0,0-.567,1.035H22.36v-.072a1.4325,1.4325,0,0,0-.837-1.161A1.5656,1.5656,0,0,0,20.83,39.915Zm5.37-.522a1.4577,1.4577,0,0,1,1.224.495,1.99,1.99,0,0,1,.396,1.296V43.83a.2693.2693,0,0,1-.081.198.2756.2756,0,0,1-.189.072.2491.2491,0,0,1-.27-.27V41.211a1.4371,1.4371,0,0,0-.297-.945,1.0708,1.0708,0,0,0-.9-.369,1.596,1.596,0,0,0-.738.18,1.5622,1.5622,0,0,0-.558.486,1.0784,1.0784,0,0,0-.216.648V43.83a.2693.2693,0,0,1-.081.198.2556.2556,0,0,1-.189.072.2491.2491,0,0,1-.27-.27V39.798a.2556.2556,0,0,1,.072-.189.2693.2693,0,0,1,.198-.081.2768.2768,0,0,1,.27.27v.495a2.0429,2.0429,0,0,1,1.629-.9Zm7.097-1.44a.561.561,0,0,0-.45.189.8075.8075,0,0,0-.153.522v.927h1.008a.2336.2336,0,0,1,.171.072.2405.2405,0,0,1,0,.36.2336.2336,0,0,1-.171.072h-1.008V43.83a.2693.2693,0,0,1-.081.198.2556.2556,0,0,1-.189.072.2491.2491,0,0,1-.27-.27V40.095h-.657a.2442.2442,0,0,1-.18-.072.2646.2646,0,0,1-.072-.18.2264.2264,0,0,1,.072-.18.2442.2442,0,0,1,.18-.072h.657v-.927a1.1431,1.1431,0,0,1,.324-.873,1.2308,1.2308,0,0,1,.882-.315,1.3223,1.3223,0,0,1,.468.081q.216.072.216.243a.2442.2442,0,0,1-.072.18.2238.2238,0,0,1-.162.072.5717.5717,0,0,1-.198-.045A1.2718,1.2718,0,0,0,33.2965,37.953Zm3.722,1.44a.7145.7145,0,0,1,.324.072.2306.2306,0,0,1,.144.216.3.3,0,0,1-.072.207.2336.2336,0,0,1-.171.072.7364.7364,0,0,1-.18-.045.7212.7212,0,0,0-.243-.045,1.0788,1.0788,0,0,0-.666.261,2.0234,2.0234,0,0,0-.54.657,1.7829,1.7829,0,0,0-.207.819V43.83a.2693.2693,0,0,1-.081.198.2556.2556,0,0,1-.189.072.2491.2491,0,0,1-.27-.27V39.798a.2556.2556,0,0,1,.072-.189.2693.2693,0,0,1,.198-.081.2768.2768,0,0,1,.27.27v.792a2.0483,2.0483,0,0,1,.621-.846A1.569,1.569,0,0,1,37.0185,39.393Zm4.998,2.142a.259.259,0,0,1-.081.189.2756.2756,0,0,1-.189.072h-3.402a2.1434,2.1434,0,0,0,.216.972,1.748,1.748,0,0,0,.63.675,1.8853,1.8853,0,0,0,.972.243,1.6364,1.6364,0,0,0,.774-.18,1.5943,1.5943,0,0,0,.549-.459.3043.3043,0,0,1,.189-.081.2469.2469,0,0,1,.234.234.2668.2668,0,0,1-.09.189,2.2511,2.2511,0,0,1-.729.576,1.9593,1.9593,0,0,1-.918.225,2.465,2.465,0,0,1-1.224-.297,2.1131,2.1131,0,0,1-.828-.828,2.535,2.535,0,0,1-.297-1.242,2.7328,2.7328,0,0,1,.288-1.287,2.1011,2.1011,0,0,1,.783-.846,1.9518,1.9518,0,0,1,1.035-.297,2.0934,2.0934,0,0,1,1.008.252,1.9843,1.9843,0,0,1,.774.738A2.2256,2.2256,0,0,1,42.0165,41.535Zm-2.088-1.62a1.5258,1.5258,0,0,0-.972.36,1.6777,1.6777,0,0,0-.567,1.035h3.069v-.072a1.4325,1.4325,0,0,0-.837-1.161A1.5656,1.5656,0,0,0,39.9285,39.915Zm7.089,1.62a.259.259,0,0,1-.081.189.2756.2756,0,0,1-.189.072h-3.402a2.1434,2.1434,0,0,0,.216.972,1.748,1.748,0,0,0,.63.675,1.8853,1.8853,0,0,0,.972.243,1.6364,1.6364,0,0,0,.774-.18,1.5943,1.5943,0,0,0,.549-.459.3043.3043,0,0,1,.189-.081.2469.2469,0,0,1,.234.234.2668.2668,0,0,1-.09.189,2.2511,2.2511,0,0,1-.729.576,1.9593,1.9593,0,0,1-.918.225,2.465,2.465,0,0,1-1.224-.297,2.1131,2.1131,0,0,1-.828-.828,2.535,2.535,0,0,1-.297-1.242,2.7328,2.7328,0,0,1,.288-1.287,2.1011,2.1011,0,0,1,.783-.846,1.9518,1.9518,0,0,1,1.035-.297,2.0934,2.0934,0,0,1,1.008.252,1.9843,1.9843,0,0,1,.774.738A2.2256,2.2256,0,0,1,47.0175,41.535Zm-2.088-1.62a1.5258,1.5258,0,0,0-.972.36,1.6777,1.6777,0,0,0-.567,1.035H46.46v-.072a1.4325,1.4325,0,0,0-.837-1.161A1.5656,1.5656,0,0,0,44.93,39.915Z"/></svg>