<svg id="Layer_1" data-name="Layer 1" xmlns="http://www.w3.org/2000/svg" viewBox="0 0 50 50"><defs><style>.cls-1{fill:#fe4265;}</style></defs><path class="cls-1" d="M25.01,36.26a15.82,15.82,0,1,1,11.172-4.6194A15.83,15.83,0,0,1,25.01,36.26ZM9.84,20.44a15.17,15.17,0,1,0,4.443-10.7268A15.1813,15.1813,0,0,0,9.84,20.44Z"/><path class="cls-1" d="M17.96,16.26a15.0248,15.0248,0,0,1-2.08-.34,1.8085,1.8085,0,0,1-1.31-2.65,3.2391,3.2391,0,0,0,.1-.82,1.71,1.71,0,0,1,1.92-1.84,2.6356,2.6356,0,0,0,.48,0c2.32-.44,3.1.17,3.2,2.53v.72a5.7593,5.7593,0,0,1,4.91,1.55,29.4894,29.4894,0,0,1,8.1,10,9.0058,9.0058,0,0,1,.83,2.69c.2,1.32-.57,2.06-1.9,1.88a7.499,7.499,0,0,1-2.24-.65,28.5849,28.5849,0,0,1-10.79-8.8,5.0554,5.0554,0,0,1-1.22-4.27Zm2.22,4.8,4.51,4.32,2.22-2,.3.32-2.06,2.27c2.17,1.12,4.18,2.22,6.25,3.17a2,2,0,0,0,1.82-.1,2.178,2.178,0,0,0,.12-1.83,24.0822,24.0822,0,0,0-5.75-8.8l-1.73,1.48-.38-.28,1.7-1.88c-1.52-1-2.9-2.14-4.4-3a2.59,2.59,0,0,0-3.29.48c-1.45,1.4-1.3,3.46.4,5.06l2-1.8.31.35Zm-1-6.66.39-.06a11.7669,11.7669,0,0,0,0-2.14c-.23-1.27-.9-1.54-2.07-1a.93.93,0,0,1-.54.08c-2.54-.61-.87,1.94-1.85,2.54a2.1382,2.1382,0,0,0,.57,1.24,2.77,2.77,0,0,0,3.05,0l-1.21-1.45.28-.29Z"/><path class="cls-1" d="M7.0985,38.911a.2743.2743,0,0,1,.171.063.1963.1963,0,0,1,.081.162.3375.3375,0,0,1-.036.153l-1.764,4.14a.3572.3572,0,0,1-.108.126.228.228,0,0,1-.135.045.25.25,0,0,1-.162-.036.2725.2725,0,0,1-.108-.135l-1.773-4.14a.1382.1382,0,0,0-.018-.054.2959.2959,0,0,1-.009-.072.2442.2442,0,0,1,.072-.18.2624.2624,0,0,1,.207-.081.215.215,0,0,1,.144.054.2776.2776,0,0,1,.108.126l1.53,3.645,1.539-3.645a.3.3,0,0,1,.099-.126A.2239.2239,0,0,1,7.0985,38.911Zm5.134,2.124a.259.259,0,0,1-.081.189.2756.2756,0,0,1-.189.072H8.5605a2.1434,2.1434,0,0,0,.216.972,1.748,1.748,0,0,0,.63.675,1.8853,1.8853,0,0,0,.972.243,1.6364,1.6364,0,0,0,.774-.18,1.5943,1.5943,0,0,0,.549-.459.3043.3043,0,0,1,.189-.081.2469.2469,0,0,1,.234.234.2668.2668,0,0,1-.09.189,2.2511,2.2511,0,0,1-.729.576,1.9593,1.9593,0,0,1-.918.225,2.465,2.465,0,0,1-1.224-.297,2.1131,2.1131,0,0,1-.828-.828,2.535,2.535,0,0,1-.297-1.242,2.7328,2.7328,0,0,1,.288-1.287,2.1011,2.1011,0,0,1,.783-.846,1.9518,1.9518,0,0,1,1.035-.297,2.0934,2.0934,0,0,1,1.008.252,1.9843,1.9843,0,0,1,.774.738A2.2256,2.2256,0,0,1,12.2325,41.035Zm-2.088-1.62a1.5258,1.5258,0,0,0-.972.36,1.6777,1.6777,0,0,0-.567,1.035h3.069v-.072a1.4325,1.4325,0,0,0-.837-1.161A1.5656,1.5656,0,0,0,10.1445,39.415Zm7.045-.414a.2408.2408,0,0,1,.189.081.2513.2513,0,0,1,.081.198v3.897a2.2856,2.2856,0,0,1-.297,1.197,1.8939,1.8939,0,0,1-.801.765,2.4891,2.4891,0,0,1-1.161.261,2.965,2.965,0,0,1-.666-.081,2.7441,2.7441,0,0,1-.594-.207q-.243-.126-.279-.261a.1982.1982,0,0,1-.063-.144.1656.1656,0,0,1,.081-.144.1458.1458,0,0,1,.09-.027.6981.6981,0,0,1,.207.063l.189.081a2.9022,2.9022,0,0,0,1.044.216,1.6718,1.6718,0,0,0,1.251-.459,1.6357,1.6357,0,0,0,.459-1.224v-.558a1.6835,1.6835,0,0,1-.711.765,2.0653,2.0653,0,0,1-1.017.27,2.1252,2.1252,0,0,1-1.125-.306,2.2276,2.2276,0,0,1-.783-.864,2.7641,2.7641,0,0,1,0-2.457,2.1606,2.1606,0,0,1,.783-.855,2.0636,2.0636,0,0,1,1.116-.315,1.9362,1.9362,0,0,1,1.035.288,1.8586,1.8586,0,0,1,.702.675V39.28a.2874.2874,0,0,1,.072-.198A.2693.2693,0,0,1,17.19,39.001Zm-1.953,4.185a1.6708,1.6708,0,0,0,.882-.234,1.627,1.627,0,0,0,.612-.675,2.1468,2.1468,0,0,0,.225-.99,2.0921,2.0921,0,0,0-.225-.981,1.5679,1.5679,0,0,0-.612-.666,1.6954,1.6954,0,0,0-1.764.009,1.7111,1.7111,0,0,0-.612.675,2.2748,2.2748,0,0,0,0,1.935,1.7793,1.7793,0,0,0,.612.684A1.653,1.653,0,0,0,15.2365,43.186Zm7.358-2.151a.259.259,0,0,1-.081.189.2756.2756,0,0,1-.189.072h-3.402a2.1434,2.1434,0,0,0,.216.972,1.748,1.748,0,0,0,.63.675,1.8853,1.8853,0,0,0,.972.243,1.6364,1.6364,0,0,0,.774-.18,1.5943,1.5943,0,0,0,.549-.459.3043.3043,0,0,1,.189-.081.2469.2469,0,0,1,.234.234.2668.2668,0,0,1-.09.189,2.2511,2.2511,0,0,1-.729.576,1.9593,1.9593,0,0,1-.918.225,2.465,2.465,0,0,1-1.224-.297,2.1131,2.1131,0,0,1-.828-.828,2.535,2.535,0,0,1-.297-1.242,2.7328,2.7328,0,0,1,.288-1.287,2.1011,2.1011,0,0,1,.783-.846,1.9518,1.9518,0,0,1,1.035-.297,2.0934,2.0934,0,0,1,1.008.252,1.9843,1.9843,0,0,1,.774.738A2.2256,2.2256,0,0,1,22.5945,41.035Zm-2.088-1.62a1.5258,1.5258,0,0,0-.972.36,1.6777,1.6777,0,0,0-.567,1.035h3.069v-.072a1.4325,1.4325,0,0,0-.837-1.161A1.5656,1.5656,0,0,0,20.5065,39.415Zm4.101.108v3.015a.6625.6625,0,0,0,.126.468.47.47,0,0,0,.333.117.6442.6442,0,0,0,.135-.018.4317.4317,0,0,1,.126-.027.1629.1629,0,0,1,.135.072.2083.2083,0,0,1,.063.153.2566.2566,0,0,1-.144.216.6866.6866,0,0,1-.342.081,1.8736,1.8736,0,0,1-.432-.045.7053.7053,0,0,1-.369-.27,1.2,1.2,0,0,1-.171-.72V39.523h-.657a.2756.2756,0,0,1-.189-.072.261.261,0,0,1,0-.36.2756.2756,0,0,1,.189-.072h.657V38.02a.2556.2556,0,0,1,.072-.189.2693.2693,0,0,1,.198-.081.2768.2768,0,0,1,.27.27v.999h.9a.2216.2216,0,0,1,.171.081.25.25,0,0,1,.081.18.2442.2442,0,0,1-.072.18.2635.2635,0,0,1-.18.063Zm5.885-.522a.2408.2408,0,0,1,.189.081.2693.2693,0,0,1,.081.198v4.05a.2693.2693,0,0,1-.081.198.2556.2556,0,0,1-.189.072.2491.2491,0,0,1-.27-.27v-.603a1.8858,1.8858,0,0,1-.675.684,1.8266,1.8266,0,0,1-.981.279,1.9592,1.9592,0,0,1-1.089-.315,2.2113,2.2113,0,0,1-.756-.864,2.7565,2.7565,0,0,1-.27-1.233,2.6275,2.6275,0,0,1,.279-1.224,2.1433,2.1433,0,0,1,.756-.855,1.97,1.97,0,0,1,1.071-.306,1.9379,1.9379,0,0,1,.99.261,1.719,1.719,0,0,1,.675.684V39.28a.2874.2874,0,0,1,.072-.198A.2693.2693,0,0,1,30.4925,39.001Zm-1.872,4.185a1.4877,1.4877,0,0,0,.837-.243,1.6707,1.6707,0,0,0,.585-.684,2.2,2.2,0,0,0,.216-.981,2.103,2.103,0,0,0-.216-.954,1.6079,1.6079,0,0,0-.585-.675,1.4493,1.4493,0,0,0-.837-.252,1.5313,1.5313,0,0,0-.846.243,1.6953,1.6953,0,0,0-.585.675,2.163,2.163,0,0,0-.207.963,2.28,2.28,0,0,0,.207.981,1.6963,1.6963,0,0,0,.576.684A1.5469,1.5469,0,0,0,28.6205,43.186Zm5.702-4.293a.7145.7145,0,0,1,.324.072.2306.2306,0,0,1,.144.216.3.3,0,0,1-.072.207.2336.2336,0,0,1-.171.072.7364.7364,0,0,1-.18-.045.7212.7212,0,0,0-.243-.045,1.0788,1.0788,0,0,0-.666.261,2.0234,2.0234,0,0,0-.54.657,1.7829,1.7829,0,0,0-.207.819V43.33a.2693.2693,0,0,1-.081.198.2556.2556,0,0,1-.189.072.2491.2491,0,0,1-.27-.27V39.298a.2556.2556,0,0,1,.072-.189.2693.2693,0,0,1,.198-.081.2768.2768,0,0,1,.27.27v.792a2.0483,2.0483,0,0,1,.621-.846A1.569,1.569,0,0,1,34.3225,38.893Zm1.834,4.437a.2693.2693,0,0,1-.081.198.2556.2556,0,0,1-.189.072.2491.2491,0,0,1-.27-.27V39.19a.2556.2556,0,0,1,.072-.189.2693.2693,0,0,1,.198-.081.2768.2768,0,0,1,.27.27Zm-.27-5.013a.4294.4294,0,0,1-.279-.081.3233.3233,0,0,1-.099-.252v-.09a.2956.2956,0,0,1,.099-.243.4354.4354,0,0,1,.288-.09q.36,0,.36.333v.09a.3233.3233,0,0,1-.099.252A.3925.3925,0,0,1,35.8865,38.317Zm5.408.684a.2408.2408,0,0,1,.189.081.2693.2693,0,0,1,.081.198v4.05a.2693.2693,0,0,1-.081.198.2556.2556,0,0,1-.189.072.2491.2491,0,0,1-.27-.27v-.603a1.8858,1.8858,0,0,1-.675.684,1.8266,1.8266,0,0,1-.981.279,1.9592,1.9592,0,0,1-1.089-.315,2.2113,2.2113,0,0,1-.756-.864,2.7565,2.7565,0,0,1-.27-1.233,2.6275,2.6275,0,0,1,.279-1.224,2.1433,2.1433,0,0,1,.756-.855,1.97,1.97,0,0,1,1.071-.306,1.9379,1.9379,0,0,1,.99.261,1.719,1.719,0,0,1,.675.684V39.28a.2874.2874,0,0,1,.072-.198A.2693.2693,0,0,1,41.2945,39.001Zm-1.872,4.185a1.4877,1.4877,0,0,0,.837-.243,1.6707,1.6707,0,0,0,.585-.684,2.2,2.2,0,0,0,.216-.981,2.103,2.103,0,0,0-.216-.954,1.6079,1.6079,0,0,0-.585-.675,1.4493,1.4493,0,0,0-.837-.252,1.5313,1.5313,0,0,0-.846.243,1.6953,1.6953,0,0,0-.585.675,2.163,2.163,0,0,0-.207.963,2.28,2.28,0,0,0,.207.981,1.6963,1.6963,0,0,0,.576.684A1.5469,1.5469,0,0,0,39.4225,43.186Zm5.72-4.293a1.4577,1.4577,0,0,1,1.224.495,1.99,1.99,0,0,1,.396,1.296V43.33a.2693.2693,0,0,1-.081.198.2756.2756,0,0,1-.189.072.2491.2491,0,0,1-.27-.27V40.711a1.4371,1.4371,0,0,0-.297-.945,1.0708,1.0708,0,0,0-.9-.369,1.596,1.596,0,0,0-.738.18,1.5622,1.5622,0,0,0-.558.486,1.0784,1.0784,0,0,0-.216.648V43.33a.2693.2693,0,0,1-.081.198.2556.2556,0,0,1-.189.072.2491.2491,0,0,1-.27-.27V39.298a.2556.2556,0,0,1,.072-.189.2693.2693,0,0,1,.198-.081.2768.2768,0,0,1,.27.27v.495a2.0429,2.0429,0,0,1,1.629-.9Z"/></svg>