<svg id="Layer_1" data-name="Layer 1" xmlns="http://www.w3.org/2000/svg" viewBox="0 0 50 50"><defs><style>.cls-1{fill:#fe4265;fill-rule:evenodd;}</style></defs><path class="cls-1" d="M9.0625,21.8458A15.8052,15.8052,0,0,1,24.9877,6.25a15.8108,15.8108,0,0,1,15.95,15.5958,19.4386,19.4386,0,0,1-4.1822,11.8009A41.37,41.37,0,0,1,26.366,43.2858a2.2445,2.2445,0,0,1-2.7339,0,40.5746,40.5746,0,0,1-10.3874-9.6391A19.4266,19.4266,0,0,1,9.0625,21.8458Zm10.6768.4856a5.2617,5.2617,0,0,0,10.5216,0,5.2608,5.2608,0,0,0-10.5216,0Z"/></svg>