<svg width="37" height="37" viewBox="0 0 37 37" fill="none" xmlns="http://www.w3.org/2000/svg">
<circle cx="18.5" cy="18.5" r="17.5" stroke="white" stroke-width="2"/>
<path fill-rule="evenodd" clip-rule="evenodd" d="M18.2761 28.3891C14.0202 28.3891 10.3857 27.7268 10.3857 25.0744C10.3857 22.4221 13.9971 19.9736 18.2761 19.9736C22.532 19.9736 26.1665 22.3984 26.1665 25.0507C26.1665 27.702 22.5551 28.3891 18.2761 28.3891Z" fill="white" stroke="white" stroke-width="1.5" stroke-linecap="round" stroke-linejoin="round"/>
<path fill-rule="evenodd" clip-rule="evenodd" d="M18.2681 16.2978C21.061 16.2978 23.3247 14.0342 23.3247 11.2412C23.3247 8.44832 21.061 6.18359 18.2681 6.18359C15.4752 6.18359 13.2105 8.44832 13.2105 11.2412C13.201 14.0247 15.449 16.2884 18.2325 16.2978C18.2451 16.2978 18.2566 16.2978 18.2681 16.2978Z" fill="white" stroke="white" stroke-width="1.5" stroke-linecap="round" stroke-linejoin="round"/>
</svg>
